<svg width="36" height="37" viewBox="0 0 36 37" fill="none" xmlns="http://www.w3.org/2000/svg">
<path d="M18 14C16.8065 14 15.6619 14.4741 14.818 15.318C13.9741 16.1619 13.5 17.3065 13.5 18.5C13.5 19.6935 13.9741 20.8381 14.818 21.682C15.6619 22.5259 16.8065 23 18 23C19.1935 23 20.3381 22.5259 21.182 21.682C22.0259 20.8381 22.5 19.6935 22.5 18.5C22.5 17.3065 22.0259 16.1619 21.182 15.318C20.3381 14.4741 19.1935 14 18 14ZM18 11C19.9891 11 21.8968 11.7902 23.3033 13.1967C24.7098 14.6032 25.5 16.5109 25.5 18.5C25.5 20.4891 24.7098 22.3968 23.3033 23.8033C21.8968 25.2098 19.9891 26 18 26C16.0109 26 14.1032 25.2098 12.6967 23.8033C11.2902 22.3968 10.5 20.4891 10.5 18.5C10.5 16.5109 11.2902 14.6032 12.6967 13.1967C14.1032 11.7902 16.0109 11 18 11ZM27.75 10.625C27.75 11.1223 27.5525 11.5992 27.2008 11.9508C26.8492 12.3025 26.3723 12.5 25.875 12.5C25.3777 12.5 24.9008 12.3025 24.5492 11.9508C24.1975 11.5992 24 11.1223 24 10.625C24 10.1277 24.1975 9.65081 24.5492 9.29918C24.9008 8.94755 25.3777 8.75 25.875 8.75C26.3723 8.75 26.8492 8.94755 27.2008 9.29918C27.5525 9.65081 27.75 10.1277 27.75 10.625ZM18 6.5C14.289 6.5 13.683 6.5105 11.9565 6.587C10.7805 6.6425 9.9915 6.8 9.2595 7.085C8.6085 7.337 8.139 7.6385 7.6395 8.1395C7.17001 8.5931 6.80903 9.14688 6.5835 9.7595C6.2985 10.4945 6.141 11.282 6.087 12.4565C6.009 14.1125 6 14.6915 6 18.5C6 22.211 6.0105 22.817 6.087 24.5435C6.1425 25.718 6.3 26.5085 6.5835 27.239C6.8385 27.8915 7.1385 28.361 7.6365 28.859C8.142 29.363 8.6115 29.6645 9.2565 29.9135C9.9975 30.2 10.7865 30.359 11.9565 30.413C13.6125 30.491 14.1915 30.5 18 30.5C21.711 30.5 22.317 30.4895 24.0435 30.413C25.2165 30.3575 26.007 30.2 26.739 29.9165C27.3885 29.663 27.861 29.3615 28.359 28.8635C28.8645 28.358 29.166 27.8885 29.415 27.2435C29.7 26.504 29.859 25.7135 29.913 24.5435C29.991 22.8875 30 22.3085 30 18.5C30 14.789 29.9895 14.183 29.913 12.4565C29.8575 11.2835 29.7 10.4915 29.415 9.7595C29.1889 9.1475 28.8286 8.59394 28.3605 8.1395C27.9071 7.66977 27.3533 7.30875 26.7405 7.0835C26.0055 6.7985 25.2165 6.641 24.0435 6.587C22.3875 6.509 21.8085 6.5 18 6.5ZM18 3.5C22.0755 3.5 22.584 3.515 24.183 3.59C25.7805 3.665 26.868 3.9155 27.825 4.2875C28.815 4.6685 29.649 5.1845 30.483 6.017C31.2457 6.76684 31.8359 7.67388 32.2125 8.675C32.583 9.6305 32.835 10.7195 32.91 12.317C32.9805 13.916 33 14.4245 33 18.5C33 22.5755 32.985 23.084 32.91 24.683C32.835 26.2805 32.583 27.368 32.2125 28.325C31.837 29.3267 31.2467 30.2339 30.483 30.983C29.7329 31.7455 28.826 32.3356 27.825 32.7125C26.8695 33.083 25.7805 33.335 24.183 33.41C22.584 33.4805 22.0755 33.5 18 33.5C13.9245 33.5 13.416 33.485 11.817 33.41C10.2195 33.335 9.132 33.083 8.175 32.7125C7.17349 32.3367 6.26629 31.7464 5.517 30.983C4.75411 30.2333 4.1639 29.3262 3.7875 28.325C3.4155 27.3695 3.165 26.2805 3.09 24.683C3.0195 23.084 3 22.5755 3 18.5C3 14.4245 3.015 13.916 3.09 12.317C3.165 10.718 3.4155 9.632 3.7875 8.675C4.16285 7.67327 4.75321 6.76598 5.517 6.017C6.26651 5.25385 7.17364 4.66359 8.175 4.2875C9.132 3.9155 10.218 3.665 11.817 3.59C13.416 3.5195 13.9245 3.5 18 3.5Z" fill="white"/>
</svg>
