<svg width="36" height="37" viewBox="0 0 36 37" fill="none" xmlns="http://www.w3.org/2000/svg">
<path d="M3.00602 33.5L5.03402 26.048C3.69773 23.7573 2.99566 21.152 3.00002 18.5C3.00002 10.2155 9.71552 3.5 18 3.5C26.2845 3.5 33 10.2155 33 18.5C33 26.7845 26.2845 33.5 18 33.5C15.3492 33.5043 12.745 32.8028 10.455 31.4675L3.00602 33.5ZM12.5865 11.462C12.3928 11.474 12.2035 11.525 12.03 11.612C11.8673 11.7041 11.7188 11.8193 11.589 11.954C11.409 12.1235 11.307 12.2705 11.1975 12.413C10.6431 13.1345 10.3449 14.0201 10.35 14.93C10.353 15.665 10.545 16.3805 10.845 17.0495C11.4585 18.4025 12.468 19.835 13.8015 21.1625C14.1225 21.482 14.436 21.803 14.7735 22.1015C16.4286 23.5587 18.4009 24.6096 20.5335 25.1705L21.387 25.301C21.6645 25.316 21.942 25.295 22.221 25.2815C22.6579 25.259 23.0844 25.1407 23.4705 24.935C23.7195 24.803 23.8365 24.737 24.045 24.605C24.045 24.605 24.1095 24.563 24.2325 24.47C24.435 24.32 24.5595 24.2135 24.7275 24.038C24.852 23.909 24.96 23.7575 25.0425 23.585C25.1595 23.3405 25.2765 22.874 25.3245 22.4855C25.3605 22.1885 25.35 22.0265 25.3455 21.926C25.3395 21.7655 25.206 21.599 25.0605 21.5285L24.1875 21.137C24.1875 21.137 22.8825 20.5685 22.086 20.2055C22.002 20.1689 21.912 20.148 21.8205 20.144C21.7179 20.1335 21.6142 20.145 21.5164 20.1779C21.4186 20.2107 21.329 20.2641 21.2535 20.3345V20.3315C21.246 20.3315 21.1455 20.417 20.061 21.731C19.9988 21.8146 19.913 21.8779 19.8147 21.9126C19.7164 21.9473 19.61 21.952 19.509 21.926C19.4113 21.8999 19.3155 21.8668 19.2225 21.827C19.0365 21.749 18.972 21.719 18.8445 21.6635L18.837 21.6605C17.9789 21.2858 17.1844 20.7798 16.482 20.1605C16.293 19.9955 16.1175 19.8155 15.9375 19.6415C15.3474 19.0764 14.8331 18.437 14.4075 17.7395L14.319 17.597C14.2555 17.5013 14.2041 17.398 14.166 17.2895C14.109 17.069 14.2575 16.892 14.2575 16.892C14.2575 16.892 14.622 16.493 14.7915 16.277C14.9327 16.0975 15.0643 15.9107 15.186 15.7175C15.363 15.4325 15.4185 15.14 15.3255 14.9135C14.9055 13.8875 14.4705 12.866 14.0235 11.852C13.935 11.651 13.6725 11.507 13.434 11.4785C13.353 11.4695 13.272 11.4605 13.191 11.4545C12.9896 11.4445 12.7877 11.448 12.5865 11.462Z" fill="white"/>
</svg>
